<mxfile host="app.diagrams.net" modified="2023-07-05T15:01:09.803Z" agent="Mozilla/5.0 (Windows NT 10.0; Win64; x64) AppleWebKit/537.36 (KHTML, like Gecko) Chrome/114.0.0.0 Safari/537.36" etag="zFQWpxqyZw1UOFfhXaFd" version="21.5.2" type="github">
  <diagram name="Page-1" id="2YBvvXClWsGukQMizWep">
    <mxGraphModel dx="1195" dy="630" grid="1" gridSize="10" guides="1" tooltips="1" connect="1" arrows="1" fold="1" page="1" pageScale="1" pageWidth="850" pageHeight="1100" math="0" shadow="0">
      <root>
        <mxCell id="0" />
        <mxCell id="1" parent="0" />
        <mxCell id="m0OUEgqYDemkvoT1o95m-23" style="edgeStyle=orthogonalEdgeStyle;rounded=0;orthogonalLoop=1;jettySize=auto;html=1;entryX=-0.02;entryY=0.394;entryDx=0;entryDy=0;entryPerimeter=0;fillColor=#1ba1e2;strokeColor=#006EAF;" edge="1" parent="1" source="m0OUEgqYDemkvoT1o95m-1" target="m0OUEgqYDemkvoT1o95m-6">
          <mxGeometry relative="1" as="geometry" />
        </mxCell>
        <mxCell id="m0OUEgqYDemkvoT1o95m-24" style="edgeStyle=orthogonalEdgeStyle;rounded=0;orthogonalLoop=1;jettySize=auto;html=1;exitX=1;exitY=0.5;exitDx=0;exitDy=0;entryX=0;entryY=0.5;entryDx=0;entryDy=0;fillColor=#1ba1e2;strokeColor=#006EAF;" edge="1" parent="1" source="m0OUEgqYDemkvoT1o95m-1" target="m0OUEgqYDemkvoT1o95m-9">
          <mxGeometry relative="1" as="geometry" />
        </mxCell>
        <mxCell id="m0OUEgqYDemkvoT1o95m-1" value="&lt;b&gt;REST API&lt;/b&gt;" style="rounded=0;whiteSpace=wrap;html=1;fillColor=#60a917;fontColor=#ffffff;strokeColor=#2D7600;" vertex="1" parent="1">
          <mxGeometry x="20" y="510" width="70" height="100" as="geometry" />
        </mxCell>
        <mxCell id="m0OUEgqYDemkvoT1o95m-55" style="edgeStyle=orthogonalEdgeStyle;rounded=0;orthogonalLoop=1;jettySize=auto;html=1;exitX=1;exitY=0.5;exitDx=0;exitDy=0;exitPerimeter=0;" edge="1" parent="1" source="m0OUEgqYDemkvoT1o95m-4">
          <mxGeometry relative="1" as="geometry">
            <mxPoint x="1050" y="310" as="targetPoint" />
          </mxGeometry>
        </mxCell>
        <mxCell id="m0OUEgqYDemkvoT1o95m-4" value="&lt;b&gt;&lt;font color=&quot;#000000&quot;&gt;EventsDB&lt;/font&gt;&lt;/b&gt;" style="strokeWidth=2;html=1;shape=mxgraph.flowchart.database;whiteSpace=wrap;fillColor=#dae8fc;gradientColor=#7ea6e0;strokeColor=#6c8ebf;" vertex="1" parent="1">
          <mxGeometry x="890" y="260" width="105" height="70" as="geometry" />
        </mxCell>
        <mxCell id="m0OUEgqYDemkvoT1o95m-25" style="edgeStyle=orthogonalEdgeStyle;rounded=0;orthogonalLoop=1;jettySize=auto;html=1;entryX=0;entryY=0.5;entryDx=0;entryDy=0;fillColor=#1ba1e2;strokeColor=#006EAF;" edge="1" parent="1" source="m0OUEgqYDemkvoT1o95m-6" target="m0OUEgqYDemkvoT1o95m-7">
          <mxGeometry relative="1" as="geometry" />
        </mxCell>
        <mxCell id="m0OUEgqYDemkvoT1o95m-6" value="&lt;p style=&quot;line-height: 200%;&quot;&gt;&lt;b&gt;C&lt;br&gt;O&lt;br&gt;M&lt;br&gt;A&lt;br&gt;N&lt;br&gt;D&lt;br&gt;S&lt;/b&gt;&lt;/p&gt;" style="rounded=1;whiteSpace=wrap;html=1;fillColor=#1ba1e2;fontColor=#ffffff;strokeColor=#006EAF;" vertex="1" parent="1">
          <mxGeometry x="140" y="290" width="50" height="180" as="geometry" />
        </mxCell>
        <mxCell id="m0OUEgqYDemkvoT1o95m-36" style="edgeStyle=orthogonalEdgeStyle;rounded=0;orthogonalLoop=1;jettySize=auto;html=1;entryX=0;entryY=0.5;entryDx=0;entryDy=0;fillColor=#1ba1e2;strokeColor=#006EAF;" edge="1" parent="1" source="m0OUEgqYDemkvoT1o95m-7" target="m0OUEgqYDemkvoT1o95m-34">
          <mxGeometry relative="1" as="geometry" />
        </mxCell>
        <mxCell id="m0OUEgqYDemkvoT1o95m-7" value="&lt;p style=&quot;line-height: 200%;&quot;&gt;&lt;font color=&quot;#ffffff&quot;&gt;&lt;b&gt;H&lt;br&gt;A&lt;br&gt;N&lt;br&gt;D&lt;br&gt;L&lt;br&gt;E&lt;br&gt;R&lt;/b&gt;&lt;/font&gt;&lt;/p&gt;" style="rounded=1;whiteSpace=wrap;html=1;fillColor=#f0a30a;fontColor=#000000;strokeColor=#BD7000;" vertex="1" parent="1">
          <mxGeometry x="260" y="290" width="50" height="180" as="geometry" />
        </mxCell>
        <mxCell id="m0OUEgqYDemkvoT1o95m-26" style="edgeStyle=orthogonalEdgeStyle;rounded=0;orthogonalLoop=1;jettySize=auto;html=1;entryX=0;entryY=0.5;entryDx=0;entryDy=0;fillColor=#1ba1e2;strokeColor=#006EAF;" edge="1" parent="1" source="m0OUEgqYDemkvoT1o95m-9" target="m0OUEgqYDemkvoT1o95m-10">
          <mxGeometry relative="1" as="geometry" />
        </mxCell>
        <mxCell id="m0OUEgqYDemkvoT1o95m-32" style="edgeStyle=orthogonalEdgeStyle;rounded=0;orthogonalLoop=1;jettySize=auto;html=1;entryX=0.414;entryY=1.01;entryDx=0;entryDy=0;entryPerimeter=0;exitX=0;exitY=0.75;exitDx=0;exitDy=0;fillColor=#e51400;strokeColor=#B20000;" edge="1" parent="1" source="m0OUEgqYDemkvoT1o95m-9" target="m0OUEgqYDemkvoT1o95m-1">
          <mxGeometry relative="1" as="geometry">
            <Array as="points">
              <mxPoint x="140" y="830" />
              <mxPoint x="49" y="830" />
            </Array>
          </mxGeometry>
        </mxCell>
        <mxCell id="m0OUEgqYDemkvoT1o95m-9" value="&lt;p style=&quot;line-height: 200%;&quot;&gt;&lt;b&gt;Q&lt;br&gt;U&lt;br&gt;E&lt;br&gt;R&lt;br&gt;I&lt;br&gt;E&lt;br&gt;S&lt;/b&gt;&lt;br&gt;&lt;/p&gt;" style="rounded=1;whiteSpace=wrap;html=1;fillColor=#e51400;fontColor=#ffffff;strokeColor=#B20000;" vertex="1" parent="1">
          <mxGeometry x="140" y="690" width="50" height="180" as="geometry" />
        </mxCell>
        <mxCell id="m0OUEgqYDemkvoT1o95m-31" style="edgeStyle=orthogonalEdgeStyle;rounded=0;orthogonalLoop=1;jettySize=auto;html=1;exitX=0;exitY=0.75;exitDx=0;exitDy=0;entryX=1;entryY=0.75;entryDx=0;entryDy=0;fillColor=#e51400;strokeColor=#B20000;" edge="1" parent="1" source="m0OUEgqYDemkvoT1o95m-10" target="m0OUEgqYDemkvoT1o95m-9">
          <mxGeometry relative="1" as="geometry">
            <Array as="points">
              <mxPoint x="210" y="825" />
              <mxPoint x="210" y="825" />
            </Array>
          </mxGeometry>
        </mxCell>
        <mxCell id="m0OUEgqYDemkvoT1o95m-58" style="edgeStyle=orthogonalEdgeStyle;rounded=0;orthogonalLoop=1;jettySize=auto;html=1;entryX=0;entryY=0.5;entryDx=0;entryDy=0;" edge="1" parent="1" source="m0OUEgqYDemkvoT1o95m-10" target="m0OUEgqYDemkvoT1o95m-51">
          <mxGeometry relative="1" as="geometry">
            <Array as="points">
              <mxPoint x="285" y="680" />
            </Array>
          </mxGeometry>
        </mxCell>
        <mxCell id="m0OUEgqYDemkvoT1o95m-59" style="edgeStyle=orthogonalEdgeStyle;rounded=0;orthogonalLoop=1;jettySize=auto;html=1;entryX=0;entryY=0.5;entryDx=0;entryDy=0;" edge="1" parent="1" source="m0OUEgqYDemkvoT1o95m-10" target="m0OUEgqYDemkvoT1o95m-56">
          <mxGeometry relative="1" as="geometry" />
        </mxCell>
        <mxCell id="m0OUEgqYDemkvoT1o95m-60" style="edgeStyle=orthogonalEdgeStyle;rounded=0;orthogonalLoop=1;jettySize=auto;html=1;exitX=0.5;exitY=1;exitDx=0;exitDy=0;entryX=0;entryY=0.5;entryDx=0;entryDy=0;fillColor=#1ba1e2;strokeColor=#006EAF;" edge="1" parent="1" source="m0OUEgqYDemkvoT1o95m-10" target="m0OUEgqYDemkvoT1o95m-57">
          <mxGeometry relative="1" as="geometry">
            <Array as="points">
              <mxPoint x="280" y="870" />
              <mxPoint x="280" y="900" />
            </Array>
          </mxGeometry>
        </mxCell>
        <mxCell id="m0OUEgqYDemkvoT1o95m-10" value="&lt;p style=&quot;line-height: 200%;&quot;&gt;&lt;b style=&quot;color: rgb(255, 255, 255);&quot;&gt;H&lt;br&gt;A&lt;br&gt;N&lt;br&gt;D&lt;br&gt;L&lt;br&gt;E&lt;br&gt;R&lt;/b&gt;&lt;/p&gt;" style="rounded=1;whiteSpace=wrap;html=1;fillColor=#f0a30a;fontColor=#000000;strokeColor=#BD7000;" vertex="1" parent="1">
          <mxGeometry x="260" y="690" width="50" height="180" as="geometry" />
        </mxCell>
        <mxCell id="m0OUEgqYDemkvoT1o95m-33" value="" style="edgeStyle=orthogonalEdgeStyle;rounded=0;orthogonalLoop=1;jettySize=auto;html=1;fillColor=#1ba1e2;strokeColor=#006EAF;" edge="1" parent="1" source="m0OUEgqYDemkvoT1o95m-11">
          <mxGeometry relative="1" as="geometry">
            <mxPoint x="900" y="850" as="targetPoint" />
          </mxGeometry>
        </mxCell>
        <mxCell id="m0OUEgqYDemkvoT1o95m-11" value="&lt;p style=&quot;line-height: 150%;&quot;&gt;&lt;b style=&quot;&quot;&gt;R&lt;br&gt;E&lt;br&gt;P&lt;br&gt;O&lt;br&gt;S&lt;br&gt;I&lt;br&gt;T&lt;br&gt;O&lt;br&gt;R&lt;br&gt;Y&lt;/b&gt;&lt;/p&gt;" style="rounded=1;whiteSpace=wrap;html=1;fillColor=#d80073;strokeColor=#A50040;fontColor=#ffffff;" vertex="1" parent="1">
          <mxGeometry x="650" y="760" width="50" height="180" as="geometry" />
        </mxCell>
        <mxCell id="m0OUEgqYDemkvoT1o95m-77" style="edgeStyle=orthogonalEdgeStyle;rounded=0;orthogonalLoop=1;jettySize=auto;html=1;entryX=1;entryY=0.75;entryDx=0;entryDy=0;fillColor=#e51400;strokeColor=#B20000;" edge="1" parent="1" target="m0OUEgqYDemkvoT1o95m-11">
          <mxGeometry relative="1" as="geometry">
            <mxPoint x="900" y="895" as="sourcePoint" />
          </mxGeometry>
        </mxCell>
        <mxCell id="m0OUEgqYDemkvoT1o95m-82" style="edgeStyle=orthogonalEdgeStyle;rounded=0;orthogonalLoop=1;jettySize=auto;html=1;fillColor=#e51400;strokeColor=#B20000;entryX=1;entryY=0.5;entryDx=0;entryDy=0;entryPerimeter=0;" edge="1" parent="1" target="m0OUEgqYDemkvoT1o95m-74">
          <mxGeometry relative="1" as="geometry">
            <mxPoint x="960" y="920" as="sourcePoint" />
            <mxPoint x="710" y="1060" as="targetPoint" />
            <Array as="points">
              <mxPoint x="960" y="1060" />
            </Array>
          </mxGeometry>
        </mxCell>
        <mxCell id="m0OUEgqYDemkvoT1o95m-12" value="&lt;font color=&quot;#000000&quot;&gt;&lt;b&gt;NotificationDB&lt;/b&gt;&lt;/font&gt;" style="strokeWidth=2;html=1;shape=mxgraph.flowchart.database;whiteSpace=wrap;fillColor=#dae8fc;gradientColor=#7ea6e0;strokeColor=#6c8ebf;" vertex="1" parent="1">
          <mxGeometry x="920" y="830" width="105" height="70" as="geometry" />
        </mxCell>
        <mxCell id="m0OUEgqYDemkvoT1o95m-14" value="" style="sketch=0;html=1;dashed=0;whitespace=wrap;fillColor=#2875E2;strokeColor=#ffffff;points=[[0.005,0.63,0],[0.1,0.2,0],[0.9,0.2,0],[0.5,0,0],[0.995,0.63,0],[0.72,0.99,0],[0.5,1,0],[0.28,0.99,0]];verticalLabelPosition=bottom;align=center;verticalAlign=top;shape=mxgraph.kubernetes.icon;prIcon=api" vertex="1" parent="1">
          <mxGeometry x="880" y="140" width="90" height="68" as="geometry" />
        </mxCell>
        <mxCell id="m0OUEgqYDemkvoT1o95m-37" style="edgeStyle=orthogonalEdgeStyle;rounded=0;orthogonalLoop=1;jettySize=auto;html=1;exitX=0.5;exitY=1;exitDx=0;exitDy=0;entryX=0.5;entryY=0;entryDx=0;entryDy=0;fillColor=#1ba1e2;strokeColor=#006EAF;" edge="1" parent="1" source="m0OUEgqYDemkvoT1o95m-34" target="m0OUEgqYDemkvoT1o95m-35">
          <mxGeometry relative="1" as="geometry" />
        </mxCell>
        <mxCell id="m0OUEgqYDemkvoT1o95m-34" value="" style="shape=hexagon;perimeter=hexagonPerimeter2;whiteSpace=wrap;html=1;fixedSize=1;" vertex="1" parent="1">
          <mxGeometry x="490" y="180" width="120" height="80" as="geometry" />
        </mxCell>
        <mxCell id="m0OUEgqYDemkvoT1o95m-38" style="edgeStyle=orthogonalEdgeStyle;rounded=0;orthogonalLoop=1;jettySize=auto;html=1;exitX=1;exitY=0.5;exitDx=0;exitDy=0;fillColor=#1ba1e2;strokeColor=#006EAF;" edge="1" parent="1" source="m0OUEgqYDemkvoT1o95m-35" target="m0OUEgqYDemkvoT1o95m-8">
          <mxGeometry relative="1" as="geometry" />
        </mxCell>
        <mxCell id="m0OUEgqYDemkvoT1o95m-35" value="" style="shape=hexagon;perimeter=hexagonPerimeter2;whiteSpace=wrap;html=1;fixedSize=1;" vertex="1" parent="1">
          <mxGeometry x="470" y="300" width="120" height="80" as="geometry" />
        </mxCell>
        <mxCell id="m0OUEgqYDemkvoT1o95m-39" value="" style="rounded=0;whiteSpace=wrap;html=1;" vertex="1" parent="1">
          <mxGeometry x="850" y="520" width="120" height="60" as="geometry" />
        </mxCell>
        <mxCell id="m0OUEgqYDemkvoT1o95m-40" value="" style="rounded=0;whiteSpace=wrap;html=1;" vertex="1" parent="1">
          <mxGeometry x="830" y="620" width="120" height="60" as="geometry" />
        </mxCell>
        <mxCell id="m0OUEgqYDemkvoT1o95m-41" value="" style="endArrow=classic;html=1;rounded=0;entryX=0;entryY=0.85;entryDx=0;entryDy=0;entryPerimeter=0;exitX=0.5;exitY=0;exitDx=0;exitDy=0;elbow=vertical;startArrow=classic;startFill=1;fillColor=#1ba1e2;strokeColor=#006EAF;" edge="1" parent="1" source="m0OUEgqYDemkvoT1o95m-8" target="m0OUEgqYDemkvoT1o95m-4">
          <mxGeometry width="50" height="50" relative="1" as="geometry">
            <mxPoint x="750" y="540" as="sourcePoint" />
            <mxPoint x="450" y="640" as="targetPoint" />
            <Array as="points">
              <mxPoint x="720" y="310" />
            </Array>
          </mxGeometry>
        </mxCell>
        <mxCell id="m0OUEgqYDemkvoT1o95m-15" value="" style="image;sketch=0;aspect=fixed;html=1;points=[];align=center;fontSize=12;image=img/lib/mscae/Cache_Redis_Product.svg;" vertex="1" parent="1">
          <mxGeometry x="580" y="759" width="50" height="42" as="geometry" />
        </mxCell>
        <mxCell id="m0OUEgqYDemkvoT1o95m-75" style="edgeStyle=orthogonalEdgeStyle;rounded=0;orthogonalLoop=1;jettySize=auto;html=1;entryX=0.06;entryY=0.717;entryDx=0;entryDy=0;entryPerimeter=0;" edge="1" parent="1" source="m0OUEgqYDemkvoT1o95m-51" target="m0OUEgqYDemkvoT1o95m-73">
          <mxGeometry relative="1" as="geometry" />
        </mxCell>
        <mxCell id="m0OUEgqYDemkvoT1o95m-51" value="&lt;b&gt;EmailService&lt;/b&gt;" style="shape=hexagon;perimeter=hexagonPerimeter2;whiteSpace=wrap;html=1;fixedSize=1;fillColor=#008a00;fontColor=#ffffff;strokeColor=#005700;" vertex="1" parent="1">
          <mxGeometry x="370" y="640" width="120" height="80" as="geometry" />
        </mxCell>
        <mxCell id="m0OUEgqYDemkvoT1o95m-54" value="" style="endArrow=classic;html=1;rounded=0;entryX=0;entryY=0.85;entryDx=0;entryDy=0;entryPerimeter=0;exitX=0.5;exitY=0;exitDx=0;exitDy=0;elbow=vertical;startArrow=classic;startFill=1;fillColor=#1ba1e2;strokeColor=#006EAF;" edge="1" parent="1" source="m0OUEgqYDemkvoT1o95m-39" target="m0OUEgqYDemkvoT1o95m-8">
          <mxGeometry width="50" height="50" relative="1" as="geometry">
            <mxPoint x="910" y="440" as="sourcePoint" />
            <mxPoint x="910" y="350" as="targetPoint" />
            <Array as="points" />
          </mxGeometry>
        </mxCell>
        <mxCell id="m0OUEgqYDemkvoT1o95m-8" value="" style="rounded=1;whiteSpace=wrap;html=1;" vertex="1" parent="1">
          <mxGeometry x="670" y="170" width="50" height="180" as="geometry" />
        </mxCell>
        <mxCell id="m0OUEgqYDemkvoT1o95m-72" style="edgeStyle=orthogonalEdgeStyle;rounded=0;orthogonalLoop=1;jettySize=auto;html=1;" edge="1" parent="1" source="m0OUEgqYDemkvoT1o95m-56" target="m0OUEgqYDemkvoT1o95m-11">
          <mxGeometry relative="1" as="geometry">
            <Array as="points">
              <mxPoint x="430" y="834" />
            </Array>
          </mxGeometry>
        </mxCell>
        <mxCell id="m0OUEgqYDemkvoT1o95m-56" value="&lt;b&gt;PushService&lt;/b&gt;" style="shape=hexagon;perimeter=hexagonPerimeter2;whiteSpace=wrap;html=1;fixedSize=1;fillColor=#d80073;fontColor=#ffffff;strokeColor=#A50040;" vertex="1" parent="1">
          <mxGeometry x="370" y="740" width="120" height="80" as="geometry" />
        </mxCell>
        <mxCell id="m0OUEgqYDemkvoT1o95m-66" style="edgeStyle=orthogonalEdgeStyle;rounded=0;orthogonalLoop=1;jettySize=auto;html=1;exitX=0.958;exitY=0.213;exitDx=0;exitDy=0;entryX=0.46;entryY=0.952;entryDx=0;entryDy=0;entryPerimeter=0;exitPerimeter=0;startArrow=classic;startFill=1;fillColor=#6a00ff;strokeColor=#3700CC;" edge="1" parent="1" source="m0OUEgqYDemkvoT1o95m-57">
          <mxGeometry relative="1" as="geometry">
            <mxPoint x="593" y="810.0039999999999" as="targetPoint" />
            <mxPoint x="490" y="911.02" as="sourcePoint" />
          </mxGeometry>
        </mxCell>
        <mxCell id="m0OUEgqYDemkvoT1o95m-76" style="edgeStyle=orthogonalEdgeStyle;rounded=0;orthogonalLoop=1;jettySize=auto;html=1;fillColor=#1ba1e2;strokeColor=#006EAF;" edge="1" parent="1" source="m0OUEgqYDemkvoT1o95m-57" target="m0OUEgqYDemkvoT1o95m-74">
          <mxGeometry relative="1" as="geometry">
            <Array as="points">
              <mxPoint x="430" y="1090" />
            </Array>
          </mxGeometry>
        </mxCell>
        <mxCell id="m0OUEgqYDemkvoT1o95m-79" style="edgeStyle=orthogonalEdgeStyle;rounded=0;orthogonalLoop=1;jettySize=auto;html=1;entryX=1;entryY=0.75;entryDx=0;entryDy=0;fillColor=#e51400;strokeColor=#B20000;" edge="1" parent="1" source="m0OUEgqYDemkvoT1o95m-57" target="m0OUEgqYDemkvoT1o95m-10">
          <mxGeometry relative="1" as="geometry">
            <Array as="points">
              <mxPoint x="430" y="850" />
              <mxPoint x="340" y="850" />
              <mxPoint x="340" y="825" />
            </Array>
          </mxGeometry>
        </mxCell>
        <mxCell id="m0OUEgqYDemkvoT1o95m-57" value="&lt;b&gt;SmsService&lt;/b&gt;" style="shape=hexagon;perimeter=hexagonPerimeter2;whiteSpace=wrap;html=1;fixedSize=1;fillColor=#0050ef;fontColor=#ffffff;strokeColor=#001DBC;" vertex="1" parent="1">
          <mxGeometry x="370" y="860" width="120" height="80" as="geometry" />
        </mxCell>
        <mxCell id="m0OUEgqYDemkvoT1o95m-73" value="&lt;p style=&quot;line-height: 150%;&quot;&gt;&lt;b style=&quot;&quot;&gt;R&lt;br&gt;E&lt;br&gt;P&lt;br&gt;O&lt;br&gt;S&lt;br&gt;I&lt;br&gt;T&lt;br&gt;O&lt;br&gt;R&lt;br&gt;Y&lt;/b&gt;&lt;/p&gt;" style="rounded=1;whiteSpace=wrap;html=1;fillColor=#008a00;strokeColor=#005700;fontColor=#ffffff;" vertex="1" parent="1">
          <mxGeometry x="650" y="530" width="50" height="180" as="geometry" />
        </mxCell>
        <mxCell id="m0OUEgqYDemkvoT1o95m-78" style="edgeStyle=orthogonalEdgeStyle;rounded=0;orthogonalLoop=1;jettySize=auto;html=1;entryX=0.7;entryY=0.988;entryDx=0;entryDy=0;entryPerimeter=0;fillColor=#e51400;strokeColor=#B20000;" edge="1" parent="1" source="m0OUEgqYDemkvoT1o95m-74" target="m0OUEgqYDemkvoT1o95m-57">
          <mxGeometry relative="1" as="geometry" />
        </mxCell>
        <mxCell id="m0OUEgqYDemkvoT1o95m-80" style="edgeStyle=orthogonalEdgeStyle;rounded=0;orthogonalLoop=1;jettySize=auto;html=1;fillColor=#1ba1e2;strokeColor=#006EAF;" edge="1" parent="1" source="m0OUEgqYDemkvoT1o95m-74">
          <mxGeometry relative="1" as="geometry">
            <mxPoint x="1000" y="910" as="targetPoint" />
            <Array as="points">
              <mxPoint x="1000" y="1090" />
              <mxPoint x="1000" y="930" />
            </Array>
          </mxGeometry>
        </mxCell>
        <mxCell id="m0OUEgqYDemkvoT1o95m-74" value="&lt;p style=&quot;line-height: 150%;&quot;&gt;&lt;b style=&quot;&quot;&gt;R&lt;br&gt;E&lt;br&gt;P&lt;br&gt;O&lt;br&gt;S&lt;br&gt;I&lt;br&gt;T&lt;br&gt;O&lt;br&gt;R&lt;br&gt;Y&lt;/b&gt;&lt;/p&gt;" style="rounded=1;whiteSpace=wrap;html=1;fillColor=#0050ef;strokeColor=#001DBC;fontColor=#ffffff;" vertex="1" parent="1">
          <mxGeometry x="650" y="970" width="50" height="180" as="geometry" />
        </mxCell>
        <mxCell id="m0OUEgqYDemkvoT1o95m-84" style="edgeStyle=orthogonalEdgeStyle;rounded=0;orthogonalLoop=1;jettySize=auto;html=1;startArrow=classic;startFill=1;fillColor=#6a00ff;strokeColor=#3700CC;" edge="1" parent="1">
          <mxGeometry relative="1" as="geometry">
            <mxPoint x="570" y="780.5" as="targetPoint" />
            <mxPoint x="490" y="779.5" as="sourcePoint" />
            <Array as="points">
              <mxPoint x="520" y="779.5" />
              <mxPoint x="520" y="780.5" />
            </Array>
          </mxGeometry>
        </mxCell>
      </root>
    </mxGraphModel>
  </diagram>
</mxfile>
